<svg width="16" height="26" viewBox="0 0 16 26" fill="none" xmlns="http://www.w3.org/2000/svg">
<path d="M6.894 16.875C6.894 16.875 7.31659 15.2605 6.34541 14.143L7.50533 11.4495L13.699 15.267L14.691 13.768L7.5997 9.3995L7.60022 9.3975L7.59089 9.3935L7.45037 9.3075L7.4343 9.332L5.03511 8.372L2.988 1H1L3.47644 9.919L2.59341 11.9675C2.59237 11.9715 2.45444 12.34 2.41296 13.1065C2.41296 13.1065 1.99659 16.234 4.25059 17.9525L2.25274 24.9955H4.28793L5.87407 19.4005L11.4098 24.9955H14.2466L14.2502 24.9935L8.48015 19.159L6.894 16.875Z" stroke="#5B73D0"/>
</svg>
