<svg width="16" height="16" viewBox="0 0 16 16" fill="none" xmlns="http://www.w3.org/2000/svg">
<path d="M8.00051 0L10.2353 4.7622L10.2972 4.87599C10.4559 5.13026 10.7115 5.30356 11.0016 5.34814L16 6.11585L12.3841 9.82055L12.3002 9.91772C12.119 10.1553 12.0412 10.465 12.0908 10.7692L12.9433 16L8.47476 13.5292L8.36094 13.4753C8.09009 13.3675 7.78604 13.3855 7.52625 13.5292L3.05674 16L3.91019 10.7692L3.92373 10.6387C3.93744 10.3345 3.82716 10.0359 3.61687 9.82055L0 6.11585L4.99943 5.34814C5.33094 5.29719 5.61744 5.07812 5.76573 4.7622L8.00051 0Z" fill="#FFC817"/>
</svg>
